<svg width="106" height="21" viewBox="0 0 106 21" fill="none" xmlns="http://www.w3.org/2000/svg">
<g clip-path="url(#clip0_403_4715)">
<path d="M10.0405 17.8787C10.0313 18.301 10.0313 18.6284 10.0313 18.8525C10.0313 19.0679 10.0405 19.2316 9.97575 19.447C9.95725 19.4987 9.90175 19.6883 9.763 19.9124C9.68899 20.0244 9.60574 20.1623 9.45773 20.2829C9.33748 20.3863 9.18947 20.4553 8.88421 20.5328C8.70846 20.5845 8.32919 20.6707 7.73717 20.6965C7.23765 20.7138 6.89539 20.6793 6.78439 20.6707C6.51613 20.6448 6.23862 20.5931 5.94261 20.4811C5.7761 20.4208 5.69285 20.3777 5.6466 20.3432C5.46159 20.2226 5.34133 20.0589 5.24883 19.8779C5.01757 19.4126 5.00832 18.9473 5.00832 18.93C4.99907 16.9481 4.98982 15.9571 4.99907 15.8623C5.17483 14.1906 5.08233 12.7946 4.99907 11.4676C4.93432 10.4766 5.11008 9.46838 5.01757 8.47741C5.00832 8.39124 4.98057 8.06379 5.11933 7.68463C5.17483 7.52091 5.30433 7.19346 5.6466 6.96941C5.87785 6.8143 6.09986 6.77122 6.54388 6.70228C6.89539 6.64196 7.16365 6.64196 7.45041 6.63334C8.08868 6.62472 8.50495 6.69366 8.63445 6.7109C9.22648 6.80568 9.40223 6.93494 9.48549 6.99526C9.65199 7.13314 9.73524 7.28824 9.8 7.40888C9.97575 7.74495 9.99425 8.07241 9.985 8.29645C10.0313 8.23613 10.1053 8.15858 10.1978 8.06379C10.392 7.86559 10.6418 7.65017 11.058 7.39165C11.5576 7.08143 11.8721 6.88324 12.3438 6.75398C12.8896 6.59887 13.3336 6.61611 13.8331 6.64196C14.5824 6.67643 15.1374 6.82292 15.3132 6.87462C15.6 6.96079 16.118 7.12452 16.6915 7.46059C17.191 7.75357 17.5148 8.03794 17.7553 8.26198C18.3288 8.77901 18.6896 9.27019 18.8561 9.51147C18.9486 9.64934 19.2723 10.1233 19.5499 10.7954C19.6794 11.1143 19.8551 11.5968 19.9754 12.2086C20.0679 12.674 20.0956 13.079 20.0956 13.3978C20.0586 16.6034 20.0679 17.6633 20.0864 17.9994C20.0864 18.0769 20.1141 18.413 20.0956 18.8611C20.0864 19.1196 20.0771 19.2489 20.0679 19.3178C20.0309 19.4901 19.9569 19.6452 19.8736 19.8262C19.8274 19.9382 19.7996 19.9899 19.7626 20.0416C19.7349 20.0933 19.6239 20.2398 19.3741 20.3777C19.2168 20.4639 18.9578 20.5759 18.3196 20.6448C18.0605 20.6707 17.7275 20.7052 17.2465 20.6879C16.7007 20.6621 16.3862 20.6534 16.007 20.4897C15.8035 20.4036 15.415 20.2312 15.2392 19.8521C15.2114 19.7831 15.1929 19.7314 15.1652 19.5763C15.1189 19.3264 15.0634 18.9817 15.0449 18.5336C15.0449 16.9308 15.0357 15.328 15.0357 13.7253C15.0357 13.6563 15.0449 13.5701 15.0357 13.4581C15.0264 13.3203 15.0172 13.0617 14.9062 12.7601C14.7674 12.381 14.5454 12.1311 14.4807 12.0535C14.1847 11.7347 13.8609 11.5796 13.7406 11.5193C13.2966 11.3211 12.8989 11.3211 12.5843 11.3211C12.4086 11.3211 12.1033 11.3383 11.7333 11.4331C11.4743 11.4934 11.2523 11.5537 11.0025 11.7175C10.7528 11.8898 10.614 12.0708 10.4753 12.2603C10.3735 12.3982 10.2163 12.6223 10.1145 12.9583C10.0313 13.2255 10.022 13.4581 10.0313 13.6219C10.0405 15.0351 10.0405 16.4569 10.0405 17.8787Z" fill="#015D5E"/>
<path d="M37.1722 18.7415C37.1722 15.3291 37.1722 11.9167 37.1722 8.50428C37.1815 8.42673 37.1815 8.33194 37.1722 8.23715C37.163 8.15098 37.1445 7.91832 37.0242 7.64257C36.9502 7.47023 36.8392 7.22895 36.608 7.03075C36.46 6.90149 36.2657 6.80671 35.8587 6.72053C35.4702 6.63436 34.6562 6.46202 33.6109 6.71192C33.2131 6.80671 33.0003 6.85841 32.7691 7.03937C32.2973 7.40129 32.2141 7.9614 32.1863 8.16822C32.1031 8.03034 31.9643 7.82353 31.7423 7.62533C31.363 7.28065 30.9653 7.13416 30.5305 6.98767C29.8552 6.76362 29.2817 6.7033 29.0042 6.68606C28.1532 6.63436 27.5056 6.78085 27.3484 6.81532C26.7379 6.96181 26.3216 7.17724 25.9701 7.3582C25.7943 7.44437 25.2393 7.73736 24.6195 8.25439C24.4253 8.4095 23.9905 8.78003 23.528 9.34015C23.2505 9.67622 22.7695 10.2794 22.4087 11.1756C22.1312 11.8736 22.048 12.4423 22.0017 12.7956C21.9462 13.2092 21.8537 13.9331 22.0295 14.8637C22.0665 15.0792 22.2052 15.7599 22.6122 16.5786C22.7047 16.7768 23.1025 17.5437 23.9073 18.3968C24.4253 18.9397 25.1746 19.7152 26.4419 20.2322C27.2836 20.5683 28.0144 20.6545 28.3197 20.6717C28.8654 20.7148 29.735 20.7837 30.6878 20.3787C31.4185 20.0685 31.9181 19.6204 32.2141 19.2671C32.2233 19.3619 32.2511 19.4912 32.3066 19.6376C32.3436 19.7411 32.4638 20.034 32.7691 20.2667C32.8246 20.3012 32.9726 20.4132 33.3426 20.5252C33.4629 20.5597 33.7774 20.6459 34.4434 20.6803C34.9152 20.7062 35.3407 20.7234 35.8772 20.6028C36.2102 20.5252 36.3582 20.4477 36.4507 20.396C36.7837 20.1978 36.941 19.922 36.9872 19.8186C37.0705 19.6549 37.0982 19.517 37.1352 19.3533C37.1815 19.0948 37.1815 18.888 37.1722 18.7415ZM29.4667 15.9926C28.0792 15.9926 26.9506 14.9413 26.9506 13.6487C26.9506 12.3562 28.0792 11.3049 29.4667 11.3049C30.8543 11.3049 31.9828 12.3562 31.9828 13.6487C31.9828 14.9413 30.8543 15.9926 29.4667 15.9926Z" fill="#015D5E"/>
<path d="M44.526 17.5096C44.526 17.9491 44.5075 18.2679 44.4982 18.828C44.4982 18.8625 44.4982 18.9401 44.489 19.0348C44.4705 19.2244 44.452 19.4916 44.3225 19.7673C44.267 19.8879 44.1745 20.1034 43.9432 20.2843C43.8599 20.3533 43.7212 20.4481 43.4252 20.5429C42.9812 20.6893 42.6112 20.698 42.1486 20.7066C41.7879 20.7152 41.5104 20.7238 41.1218 20.6635C40.6686 20.5946 40.4373 20.5773 40.1876 20.4222C39.9008 20.2499 39.762 20.0172 39.6973 19.9138C39.429 19.4743 39.4475 19.0262 39.4475 18.8884C39.5308 16.1826 39.4013 13.4682 39.4753 10.7624C39.4938 10.2023 39.503 9.34055 39.466 8.28064C39.4568 8.19447 39.4568 8.09107 39.4845 7.97043C39.4938 7.92734 39.5215 7.78085 39.651 7.54819C39.725 7.41893 39.8176 7.24659 39.9748 7.10009C40.2061 6.88467 40.4743 6.81573 40.7981 6.72956C41.2236 6.62615 41.5566 6.61753 41.8434 6.61753C42.5464 6.60892 43.0089 6.71232 43.2679 6.78126C43.4807 6.84158 43.6472 6.91052 43.8044 7.02254C44.0172 7.17765 44.1282 7.35861 44.1745 7.43616C44.4335 7.86702 44.3872 8.3065 44.3595 8.49607C44.452 8.36682 44.5907 8.17724 44.7665 7.97904C44.97 7.755 45.2382 7.4534 45.673 7.17765C45.8765 7.04839 46.2373 6.81573 46.7646 6.68647C47.2086 6.57445 47.5508 6.59168 47.9856 6.60892C48.3464 6.62615 48.7811 6.64339 49.3269 6.80711C49.8727 6.97945 50.2519 7.21212 50.4462 7.33276C50.8624 7.59127 51.1307 7.84979 51.2325 7.95319C51.5747 8.28926 51.806 8.63395 51.9632 8.9097C52.213 8.59086 52.4443 8.34958 52.62 8.19447C53.175 7.68606 53.7023 7.39308 54.1648 7.14318C54.5256 6.9536 54.7013 6.8502 54.9603 6.77264C55.5616 6.57445 56.0704 6.59168 56.4497 6.6003C57.1712 6.62615 57.717 6.78988 57.902 6.8502C58.0962 6.91913 58.642 7.10871 59.2248 7.52234C59.4283 7.66883 59.7798 7.94458 60.1313 8.36682C60.196 8.44437 60.4735 8.78906 60.7696 9.38364C61.2968 10.4435 61.4171 11.4001 61.4911 12.0463C61.5281 12.3566 61.5373 12.572 61.5651 12.977C61.6113 13.8387 61.5743 14.1575 61.5651 15.3467C61.5466 16.7944 61.5373 18.087 61.5651 18.5954C61.5651 18.6385 61.5743 18.7936 61.5651 19.0004C61.5558 19.1555 61.5373 19.3451 61.4633 19.5863C61.4263 19.707 61.3708 19.8621 61.2413 20.0431C61.2413 20.0431 61.1211 20.2154 60.9546 20.3447C60.6123 20.6118 60.1498 20.6549 59.493 20.698C58.9935 20.7324 58.6512 20.7066 58.3737 20.6893C57.902 20.6549 57.6984 20.5946 57.5504 20.5342C57.4579 20.4998 57.2082 20.405 57.0139 20.2326C56.6439 19.8966 56.5977 19.4054 56.5884 19.1641C56.5052 17.8543 56.4682 17.1994 56.5514 15.4501C56.5514 15.4501 56.6254 14.5022 56.4682 12.8736C56.4589 12.796 56.4404 12.5892 56.3294 12.3307C56.2739 12.2014 56.1629 11.9602 55.9039 11.7361C55.5801 11.4604 55.2286 11.3914 55.1084 11.3656C54.7938 11.3053 54.5348 11.3484 54.4146 11.3656C54.2573 11.3914 54.0723 11.4173 53.8596 11.5379C53.545 11.7103 53.3878 11.9688 53.3415 12.055C53.2675 12.1756 53.2398 12.279 53.2028 12.391C53.0918 12.7529 53.0918 13.0545 53.0825 13.1493C53.0825 13.5888 53.0363 14.0283 53.0548 14.4678C53.175 16.5531 52.8975 17.2942 53.027 18.4747C53.0363 18.5437 53.0733 18.8711 52.99 19.2847C52.9438 19.5002 52.8975 19.7587 52.7033 20.0172C52.6293 20.112 52.4535 20.3188 52.1575 20.4739C52.0557 20.5256 51.9355 20.5773 51.7042 20.629C51.2787 20.7238 50.9272 20.7324 50.6589 20.741C49.9282 20.7497 49.5582 20.7497 49.2714 20.6635C49.0216 20.5946 48.5961 20.4653 48.3094 20.0948C48.2076 19.9569 48.1244 19.7932 48.0503 19.414C47.9023 18.6471 47.9671 18.0353 47.9671 18.0353C48.0411 17.4062 48.0596 16.3118 47.9671 14.2954C47.9948 13.7612 47.9578 13.3303 47.9208 13.0115C47.8561 12.5117 47.7728 12.3135 47.6896 12.167C47.6156 12.0377 47.4583 11.7706 47.1068 11.5638C47.0606 11.5379 46.8108 11.3914 46.45 11.3484C46.3483 11.3397 46.0153 11.3053 45.6175 11.4345C45.4695 11.4862 45.229 11.5638 45.0162 11.7792C44.859 11.9429 44.785 12.1067 44.7387 12.2445C44.4705 12.977 44.4705 13.5113 44.4705 13.5199C44.5167 14.5453 44.526 17.1305 44.526 17.5096Z" fill="#015D5E"/>
<path d="M65.3974 4.68002C65.1384 4.64555 64.9349 4.60246 64.7129 4.49906C64.6296 4.46459 64.4909 4.39565 64.3614 4.28363C64.1671 4.1199 64.0561 3.90447 63.9544 3.50808C63.8434 3.06861 63.8526 2.60328 63.8804 1.68125C63.8896 1.47443 63.8989 1.26762 64.0006 1.01773C64.0376 0.931554 64.1579 0.673039 64.4261 0.45761C64.6851 0.250799 64.9534 0.199096 65.3512 0.121541C65.6657 0.0612212 66.2114 -0.00771605 66.9052 0.052604C67.599 0.121541 67.8488 0.207713 67.932 0.250799C68.0708 0.319736 68.339 0.448993 68.561 0.733359C68.7553 0.991874 68.8108 1.25901 68.82 1.39688C68.8293 1.49167 68.8478 1.62093 68.857 1.77603C68.8663 1.88806 68.8848 2.15519 68.8848 2.56881C68.8848 2.99105 68.8755 3.19786 68.8478 3.36159C68.8015 3.58564 68.746 3.83553 68.5425 4.10267C68.4685 4.19745 68.3113 4.39565 68.0153 4.52491C67.8858 4.57661 67.784 4.60246 67.6915 4.6197C67.0347 4.74034 66.489 4.74895 66.489 4.74895C66.3317 4.74895 65.9154 4.74895 65.3974 4.68002Z" fill="#015D5E"/>
<path d="M63.8311 13.8314C63.8681 16.9422 63.8681 18.2434 63.8404 18.4933C63.8404 18.5106 63.8311 18.5795 63.8311 18.6743C63.8311 18.8294 63.8404 19.0707 63.8959 19.3378C63.9976 19.7773 64.0716 19.9582 64.1826 20.0961C64.3214 20.2598 64.4786 20.346 64.5896 20.4063C64.6822 20.458 64.9319 20.5873 65.5702 20.6648C66.0975 20.7338 66.4952 20.7165 66.8467 20.6993C67.4295 20.6735 67.6515 20.6045 67.7625 20.5701C67.9475 20.5097 68.1603 20.4408 68.3545 20.2685C68.6691 19.9927 68.7523 19.6394 68.8171 19.3292C68.9188 18.8639 68.8818 18.4933 68.8726 18.4589C68.7153 16.8647 68.8448 9.38499 68.8818 8.64391C68.8818 8.6353 68.9003 8.3854 68.8448 8.04933C68.7801 7.60985 68.6691 7.44613 68.6321 7.40304C68.5118 7.23932 68.373 7.14453 68.2343 7.05836C67.9475 6.8774 67.6885 6.80846 67.4943 6.75676C67.1427 6.67058 66.8745 6.66197 66.5785 6.64473C66.2455 6.63612 66.0142 6.65335 65.5517 6.69644C65.0152 6.74814 64.8857 6.78261 64.8117 6.81708C64.6729 6.86878 64.3954 6.97218 64.1826 7.23932C64.0531 7.40304 64.0069 7.56677 63.9699 7.69603C63.7849 8.4371 63.8219 8.94551 63.8219 8.94551C63.8959 9.62627 63.8774 11.3756 63.8311 13.8314Z" fill="#015D5E"/>
<path d="M71.1656 2.99197C71.1564 2.56973 71.1564 2.21643 71.1656 1.94929C71.1749 1.51844 71.1934 1.37194 71.2489 1.18237C71.3136 0.966938 71.3969 0.682572 71.6651 0.458526C71.7207 0.41544 71.8317 0.329269 72.1554 0.217246C72.2572 0.182777 72.7382 0.0276683 73.4967 0.00181688C73.6632 -0.00680027 74.0702 -0.00680027 74.5882 0.0707541C75.0508 0.139691 75.2543 0.225863 75.356 0.277566C75.4948 0.346503 75.7075 0.449909 75.874 0.665338C76.0406 0.880767 76.0961 1.0962 76.1331 1.22545C76.1701 1.38056 76.1793 1.51844 76.1793 1.61322C76.1886 4.68093 76.2071 7.75726 76.2163 10.825C76.8731 10.2476 77.5391 9.67026 78.1959 9.09291C78.6769 8.61035 79.1209 8.25705 79.4724 8.01577C79.4724 8.01577 79.8794 7.7314 80.4992 7.42119C80.86 7.24023 81.045 7.17991 81.2762 7.17129C81.6 7.16267 81.8498 7.26608 81.9515 7.30916C82.118 7.38672 82.266 7.48151 82.5158 7.72279C82.6545 7.85204 82.8765 8.07609 83.3483 8.66206C83.6906 9.09291 83.8386 9.30834 83.9311 9.57547C83.9773 9.71335 84.0051 9.85984 83.9866 10.0322C83.9681 10.1787 83.9218 10.3165 83.8478 10.4544C83.6258 10.8594 83.3021 11.1093 83.2558 11.1438C82.8118 11.4885 81.6647 12.4191 80.1014 13.6514C80.5547 14.0047 81.008 14.358 81.452 14.7113C82.377 15.4265 83.2928 16.1504 84.2178 16.8656C84.4121 17.0121 84.5508 17.1586 84.6433 17.262C84.7359 17.374 84.8099 17.4516 84.8746 17.5894C84.9024 17.6411 85.0041 17.8393 85.0041 18.0892C85.0041 18.2099 84.9856 18.3564 84.7821 18.7355C84.7266 18.8303 84.4861 19.287 84.0328 19.8471C83.9033 20.0022 83.8016 20.1143 83.6721 20.2349C83.4778 20.4159 83.3113 20.5365 83.2466 20.5796C83.043 20.7175 82.9413 20.7864 82.7748 20.8381C82.562 20.8984 82.377 20.8898 82.2568 20.8812C82.1735 20.8726 81.9238 20.8467 81.5167 20.6658C81.1837 20.5106 80.9525 20.3469 80.9062 20.3124C80.4622 19.985 78.6584 18.477 76.2441 16.3744C76.2348 17.4774 76.2256 18.296 76.2256 18.7269C76.2256 18.7872 76.2256 19.0026 76.1793 19.2784C76.1516 19.4507 76.1145 19.6403 76.0035 19.8644C75.948 19.985 75.874 20.1315 75.7168 20.278C75.6798 20.3124 75.504 20.4676 75.0785 20.5968C74.7733 20.683 74.5327 20.7002 74.0517 20.7175C73.728 20.7347 73.4782 20.7433 73.1267 20.7175C72.7937 20.6916 72.5347 20.6744 72.2202 20.5623C72.0074 20.4848 71.8039 20.4072 71.6281 20.2263C71.5449 20.1315 71.4524 20.0022 71.3599 19.692C71.2119 19.1922 71.2211 18.7872 71.2211 18.7872C71.1934 18.1668 71.1749 11.7901 71.1656 2.99197Z" fill="#015D5E"/>
<path d="M93.1538 6.375C88.8154 6.375 85.3003 9.64952 85.3003 13.691C85.3003 17.7324 88.8154 21.0069 93.1538 21.0069C97.4922 21.0069 101.007 17.7324 101.007 13.691C100.998 9.64952 97.483 6.375 93.1538 6.375ZM93.1538 16.233C91.6183 16.233 90.3787 15.0783 90.3787 13.6479C90.3787 12.2174 91.6183 11.0627 93.1538 11.0627C94.6894 11.0627 95.9289 12.2174 95.9289 13.6479C95.9289 15.0783 94.6894 16.233 93.1538 16.233Z" fill="#015D5E"/>
</g>
<defs>
<clipPath id="clip0_403_4715">
<rect width="96" height="21" fill="white" transform="translate(5)"/>
</clipPath>
</defs>
</svg>
